<svg xmlns="http://www.w3.org/2000/svg" viewBox="0 0 64 64" role="img"
     aria-label="Cryptic Teacher">
  <!-- Same 5x5 motif as tools/make_icons.py; keep the two in sync. -->
  <rect width="64" height="64" fill="#faf8f4"/>
  <g transform="translate(6 6)">
    <rect x="-2" y="-2" width="56" height="56" fill="#14171a"/>
    <rect width="52" height="52" fill="#9199a3"/>
    <g fill="#ffffff">
      <rect x="0"  y="0"  width="10" height="10"/><rect x="11" y="0"  width="10" height="10"/>
      <rect x="33" y="0"  width="10" height="10"/><rect x="44" y="0"  width="8"  height="10"/>
      <rect x="0"  y="11" width="10" height="10"/><rect x="11" y="11" width="10" height="10"/>
      <rect x="22" y="11" width="10" height="10"/><rect x="33" y="11" width="10" height="10"/>
      <rect x="44" y="11" width="8"  height="10"/>
      <rect x="11" y="22" width="10" height="10"/><rect x="33" y="22" width="10" height="10"/>
      <rect x="0"  y="33" width="10" height="10"/><rect x="11" y="33" width="10" height="10"/>
      <rect x="22" y="33" width="10" height="10"/><rect x="33" y="33" width="10" height="10"/>
      <rect x="44" y="33" width="8"  height="10"/>
      <rect x="0"  y="44" width="10" height="8"/> <rect x="11" y="44" width="10" height="8"/>
      <rect x="33" y="44" width="10" height="8"/> <rect x="44" y="44" width="8"  height="8"/>
    </g>
    <rect x="22" y="22" width="10" height="10" fill="#0f5c86"/>
  </g>
</svg>
